<?xml version="1.0" encoding="utf-8"?>
<!-- Generator: Adobe Illustrator 17.0.1, SVG Export Plug-In . SVG Version: 6.00 Build 0)  -->
<!DOCTYPE svg PUBLIC "-//W3C//DTD SVG 1.1//EN" "http://www.w3.org/Graphics/SVG/1.1/DTD/svg11.dtd">
<svg version="1.1" id="Слой_1" xmlns="http://www.w3.org/2000/svg" xmlns:xlink="http://www.w3.org/1999/xlink" x="0px" y="0px"
	 width="20px" height="20px" viewBox="0 0 20 20" enable-background="new 0 0 20 20" xml:space="preserve">
<path fill="#991717" d="M18.555,9.775L3.006,1.768C2.841,1.684,2.629,1.675,2.454,1.743c-0.178,0.07-0.288,0.205-0.288,0.356v16.013
	c0,0.148,0.11,0.285,0.288,0.354c0.076,0.031,0.162,0.045,0.249,0.045c0.107,0,0.212-0.023,0.304-0.07l15.549-8.006
	c0.147-0.075,0.233-0.198,0.233-0.328C18.788,9.972,18.702,9.849,18.555,9.775L18.555,9.775z"/>
<polygon fill="#991717" points="3.239,17.349 3.239,2.861 17.306,10.105 "/>
<path fill="#991717" d="M4.277,14.03"/>
<g>
	<path fill="#FFFFFF" d="M9.237,19.75c-2.112,0-4.099-0.467-4.333-3.852l0-6.982c0-0.359,0.292-0.651,0.651-0.651
		c0.36,0,0.653,0.292,0.653,0.651v3.217c0,0.209,0.17,0.379,0.378,0.379s0.378-0.17,0.378-0.379V6.986
		c0-0.359,0.292-0.651,0.651-0.651c0.359,0,0.651,0.292,0.651,0.651v4.632c0,0.21,0.169,0.38,0.378,0.38
		c0.209,0,0.38-0.17,0.38-0.38V5.827c0-0.43,0.35-0.779,0.779-0.779c0.43,0,0.779,0.35,0.779,0.779v5.791
		c0,0.21,0.17,0.38,0.379,0.38s0.379-0.17,0.379-0.38V7.629c0-0.43,0.35-0.779,0.779-0.779s0.779,0.35,0.779,0.779l0.003,6.38
		l0.29-0.047c0.227-0.037,0.428-0.181,0.552-0.396c0.429-0.751,0.936-1.19,1.285-1.427c0.358-0.242,0.832-0.399,1.208-0.4
		c0.144,0,0.247,0.056,0.313,0.164c0.111,0.187,0.076,0.47,0.051,0.529c-0.097,0.179-0.218,0.387-0.406,0.541
		c-0.271,0.22-0.541,0.574-0.78,1.025c-0.103,0.196-0.95,1.527-1.568,2.5c-0.323,0.507-0.595,0.936-0.696,1.098
		C12.405,18.929,10.908,19.75,9.237,19.75z"/>
	<path fill="#991717" d="M9.804,5.298c0.292,0,0.529,0.237,0.529,0.529v5.791c0,0.347,0.282,0.63,0.629,0.63
		c0.346,0,0.628-0.282,0.628-0.63V7.629c0-0.292,0.237-0.529,0.529-0.529c0.292,0,0.529,0.237,0.529,0.529l0,5.715
		c0.004,0.097,0.004,0.187,0.004,0.26v0.111v0.586l0.579-0.092c0.301-0.048,0.567-0.236,0.73-0.518
		c0.405-0.708,0.881-1.121,1.209-1.344c0.319-0.216,0.738-0.356,1.07-0.357c0.069,0,0.083,0.024,0.095,0.043
		c0.05,0.084,0.048,0.256,0.047,0.278c-0.092,0.169-0.195,0.345-0.346,0.469c-0.298,0.242-0.59,0.624-0.845,1.106
		c-0.103,0.197-1.085,1.738-1.557,2.48c-0.323,0.508-0.596,0.938-0.708,1.12c-0.694,1.243-2.108,2.015-3.689,2.015
		c-2.301,0-3.876-0.615-4.083-3.584v-7c0-0.221,0.18-0.401,0.401-0.401c0.222,0,0.403,0.18,0.403,0.401v3.217
		c0,0.346,0.282,0.628,0.628,0.628c0.346,0,0.628-0.282,0.628-0.628V6.986c0-0.221,0.18-0.401,0.401-0.401
		c0.221,0,0.401,0.18,0.401,0.401v4.632c0,0.347,0.282,0.63,0.628,0.63c0.347,0,0.63-0.282,0.63-0.63V5.827
		C9.275,5.535,9.512,5.298,9.804,5.298 M9.804,4.798c-0.568,0-1.029,0.461-1.029,1.029v5.791c0,0.072-0.058,0.13-0.13,0.13
		c-0.07,0-0.128-0.058-0.128-0.13V6.986c0-0.496-0.403-0.901-0.901-0.901c-0.496,0-0.901,0.405-0.901,0.901v5.147
		c0,0.07-0.058,0.128-0.128,0.128s-0.128-0.058-0.128-0.128V8.916c0-0.496-0.404-0.901-0.903-0.901
		c-0.496,0-0.901,0.405-0.901,0.901v7C4.904,19.514,7.111,20,9.237,20c1.763,0,3.345-0.875,4.126-2.271
		c0.101-0.162,0.372-0.59,0.694-1.096c0.805-1.264,1.479-2.326,1.578-2.516c0.222-0.42,0.47-0.749,0.717-0.95
		c0.223-0.182,0.359-0.415,0.47-0.618c0.058-0.107,0.107-0.498-0.058-0.773c-0.111-0.185-0.297-0.287-0.524-0.287h-0.004
		c-0.428,0.001-0.945,0.171-1.347,0.444c-0.371,0.251-0.909,0.716-1.362,1.509c-0.086,0.148-0.225,0.249-0.374,0.273
		c0-0.034,0-0.073,0-0.111c0-0.079,0-0.175-0.004-0.279V7.629c0-0.568-0.461-1.029-1.029-1.029c-0.568,0-1.029,0.461-1.029,1.029
		v3.989c0,0.072-0.058,0.13-0.128,0.13c-0.071,0-0.129-0.058-0.129-0.13V5.827C10.833,5.259,10.372,4.798,9.804,4.798L9.804,4.798z"
		/>
</g>
<path fill="#FFFFFF" d="M14.011,14.053"/>
</svg>
